# xmcd
#
# Track frame offsets: 
#        150
#        18018
#        44550
#        64065
#        80947
#        96281
#        115792
#        133335
#        154762
#        175252
#
# Disc length: 2595 seconds
#
# Revision: 1
# Processed by: cddbd v1.5.2PL0 Copyright (c) Steve Scherf et al.
# Submitted via: ExactAudioCopy v0.95b4
#
DISCID=860a210a
DTITLE=Aldo Farias - Murales
DYEAR=2001
DGENRE=Jazz
TTITLE0=Giungla
TTITLE1=Luca
TTITLE2=Bop memory
TTITLE3=Reminescenze
TTITLE4=Intreccio
TTITLE5=Leo waltz
TTITLE6=New Tarantella
TTITLE7=Lugano
TTITLE8=Geghe geghe gé
TTITLE9=Murales
EXTD=YEAR: 2001
EXTT0=
EXTT1=
EXTT2=
EXTT3=
EXTT4=
EXTT5=
EXTT6=
EXTT7=
EXTT8=
EXTT9=
PLAYORDER=
